<svg width="174" height="30" viewBox="0 0 174 30" fill="none" xmlns="http://www.w3.org/2000/svg">
<path d="M0.352051 4.41504H2.06308V14.5182H13.4709V4.41504H15.182V25.5447H13.4709V16.1347H2.06384V25.5447H0.352051V4.41504Z" fill="#1E2C5B"/>
<path d="M19.7349 8.1678C19.7349 5.33795 21.5362 4.32845 23.5166 4.41527L32.7941 4.81848V6.05976H23.5173C21.8362 6.05976 21.4467 6.92579 21.4467 8.1678V14.1998L31.5934 14.4309V15.7016L21.4467 15.9319V21.9941C21.4467 23.899 22.6771 23.9858 23.8181 23.9858H32.7948V25.1977L23.8181 25.6311C21.8362 25.7172 19.7356 25.2558 19.7356 21.9941V8.1678H19.7349Z" fill="#1E2C5B"/>
<path d="M36.9187 4.41504H38.629V21.9085C38.629 23.8134 39.8602 23.8995 41.0011 23.8995H49.857V25.5447H41.0019C39.02 25.5447 36.9195 25.1695 36.9195 21.9085L36.9187 4.41504Z" fill="#1E2C5B"/>
<path d="M52.9478 4.41504H61.7447C64.1161 4.41504 66.9987 5.25163 66.9987 10.4191C66.9987 16.3945 63.9661 16.7108 61.7447 16.7108C60.5441 16.7108 54.8095 16.3076 54.6595 16.2208V25.5447H52.9485L52.9478 4.41504ZM61.7447 15.0384C63.5759 15.0384 65.2869 14.5182 65.257 10.4191C65.2272 6.40609 63.2162 6.08896 61.7447 6.08896H54.6588V15.0384H61.7447Z" fill="#1E2C5B"/>
<path d="M71.1196 4.41504H72.8307V25.5447H71.1196V4.41504Z" fill="#036EE9"/>
<path d="M77.3931 4.41504H79.1347L91.3537 22.4559V4.41504H93.0647V25.5447H91.3537L79.1049 7.50315V25.5447H77.3931V4.41504Z" fill="#036EE9"/>
<path d="M128.259 3.58496C133.452 3.58496 136.603 4.53781 136.603 14.4371C136.603 23.7596 133.662 24.9715 128.259 24.9715C122.856 24.9715 119.914 24.048 119.914 14.4371C119.914 4.53781 123.186 3.58496 128.259 3.58496ZM128.259 23.327C133.091 23.327 134.893 22.0857 134.893 14.4371C134.893 5.57601 132.612 5.22945 128.259 5.22945C124.117 5.22945 121.625 5.4318 121.625 14.4371C121.625 22.2593 123.307 23.327 128.259 23.327Z" fill="#036EE9"/>
<path d="M140.491 3.72754L146.163 12.9632L151.927 3.72754H153.848L147.304 14.2346L153.698 24.855H151.776L146.163 15.6768L140.58 24.855H138.659L145.052 14.2346L138.569 3.72754H140.491Z" fill="#036EE9"/>
<path d="M156.051 23.3215C156.051 23.0647 156.173 22.9072 156.44 22.9072H157.238C157.544 22.9072 157.668 23.0654 157.668 23.3215V24.4818C157.668 24.7577 157.484 24.8556 157.238 24.8556H156.44C156.214 24.8556 156.051 24.6981 156.051 24.4818V23.3215Z" fill="#1E2C5B"/>
<path d="M160.432 11.5717C160.432 11.3157 160.576 11.1582 160.842 11.1582H161.599C161.844 11.1582 161.988 11.3355 161.988 11.5717V12.6739C161.988 12.93 161.824 13.0683 161.599 13.0683H160.842C160.596 13.0683 160.432 12.9116 160.432 12.6739V11.5717ZM160.596 14.4067H161.763V24.8557H160.596V14.4067Z" fill="#1E2C5B"/>
<path d="M168.945 14.3076C172.568 14.3076 173.633 15.7836 173.633 19.7782C173.633 23.6367 172.527 24.9552 168.945 24.9552C165.302 24.9552 164.258 23.5182 164.258 19.7782C164.258 15.5084 165.485 14.3076 168.945 14.3076ZM168.945 23.8332C171.279 23.8332 172.466 23.3998 172.466 19.7782C172.466 15.8623 171.362 15.4297 168.945 15.4297C166.592 15.4297 165.425 15.7446 165.425 19.7782C165.425 23.4991 166.673 23.8332 168.945 23.8332Z" fill="#1E2C5B"/>
<path d="M106.32 5.9644L111.241 8.96496L115.876 6.18293L106.32 0.355469" fill="#1E2C5B"/>
<path d="M101.672 8.96484V14.715L111.397 20.5101L115.892 17.7215L101.672 8.96484Z" fill="#223F6E"/>
<path d="M106.32 23.6813V29.0754L115.876 23.2436V17.7207L106.32 23.6813Z" fill="#1E2C5B"/>
<path d="M115.878 12.3074L101.554 20.7337L106.333 23.6827V29.0783L96.7739 23.2435V6.2923H96.8588L96.6897 6.19517L106.333 0.360352V5.96782L101.672 8.75499V14.7186L115.878 6.17972V12.3074Z" fill="#036EE9"/>
</svg>
